/* XPM */
static char * c_xpm[] = {
"31 31 4 1",
" 	c None",
".	c #2E3237",
"+	c #D04020",
"@	c #FFFFFF",
"...............................",
"...............................",
"...............................",
"...............................",
"...............................",
".....+++++++++++++++++++++.....",
".....+++++++++++++++++++++.....",
".....+++++++++++++++++++++.....",
".....+++++++++++++++++++++.....",
".....+++++++++++++++++++++.....",
".....+++++++++++++++++++++.....",
".....+++++++++++++++++++++.....",
".....+++++++++++++++++++++.....",
".....++++++++@+++@++++++++.....",
".....+++++++++@+@+++++++++.....",
".....++++++++++@++++++++++.....",
".....+++++++++@+@+++++++++.....",
".....++++++++@+++@++++++++.....",
".....+++++++++++++++++++++.....",
".....+++++++++++++++++++++.....",
".....+++++++++++++++++++++.....",
".....+++++++++++++++++++++.....",
".....+++++++++++++++++++++.....",
".....+++++++++++++++++++++.....",
".....+++++++++++++++++++++.....",
".....+++++++++++++++++++++.....",
"...............................",
"...............................",
"...............................",
"...............................",
"..............................."};
