/* XPM */
static char * focus_xpm[] = {
"128 12 3 1",
" 	c None",
".	c #040608",
"+	c #FFFFFF",
"................................................................................................................................",
"................................................................................................................................",
"................................................................................................................................",
"................................................................................................................................",
"................................................................................................................................",
"................................................................................................................................",
"................................................................................................................................",
"................................................................................................................................",
"................................................................................................................................",
"................................................................................................................................",
"................................................................................................................................",
"++++++++++++++++++++++++++++++++++++++++++++++++++++++++++++++++++++++++++++++++++++++++++++++++++++++++++++++++++++++++++++++++"};
