/* XPM */
static char * sel_xpm[] = {
"7 7 6 1",
" 	c None",
".	c #FFFFFF",
"+	c #AAAAAA",
"@	c #040608",
"#	c #555555",
"$	c #000000",
".+@@@+.",
"+#...#+",
"@.#$#.@",
"@.$$$.@",
"@.#$#.@",
"+#...#+",
".+@@@+."};
