/* XPM */
static char * t0_xpm[] = {
"15 15 3 1",
" 	c None",
".	c #FFFFFF",
"+	c #000000",
"...............",
"...............",
"...............",
"...............",
"...............",
".....+++++.....",
".....+...+.....",
".....+...+.....",
".....+...+.....",
".....+++++.....",
"...............",
"...............",
"...............",
"...............",
"..............."};
