/* XPM */
static char * t1_xpm[] = {
"15 15 3 1",
" 	c None",
".	c #FFFFFF",
"+	c #000000",
"...............",
"...............",
"...............",
"...............",
"...............",
".....+++++.....",
".....+...+.....",
".....+.+.+.....",
".....+...+.....",
".....+++++.....",
"...............",
"...............",
"...............",
"...............",
"..............."};
