/* XPM */
static char * unsela_xpm[] = {
"7 7 5 1",
" 	c None",
".	c #2E3237",
"+	c #83878C",
"@	c #FFFFFF",
"#	c #D8DCE1",
".+@@@+.",
"+#...#+",
"@.....@",
"@.....@",
"@.....@",
"+#...#+",
".+@@@+."};
